<?xml version="1.0" standalone="no"?>
<!DOCTYPE svg PUBLIC "-//W3C//DTD SVG 20010904//EN"
 "http://www.w3.org/TR/2001/REC-SVG-20010904/DTD/svg10.dtd">
<svg version="1.0" xmlns="http://www.w3.org/2000/svg"
 width="700.000000pt" height="700.000000pt" viewBox="0 0 700.000000 700.000000"
 preserveAspectRatio="xMidYMid meet">
<metadata>
Created by potrace 1.14, written by Peter Selinger 2001-2017
</metadata>
<g transform="translate(0.000000,700.000000) scale(0.100000,-0.100000)"
fill="#000000" stroke="none">
<path d="M3239 6996 c-2 -2 -35 -6 -74 -10 -82 -7 -150 -15 -185 -22 -14 -2
-42 -7 -63 -10 -48 -7 -72 -12 -72 -14 0 -1 -9 -3 -20 -4 -171 -24 -500 -126
-734 -228 -146 -64 -372 -184 -379 -200 -2 -4 -7 -6 -12 -3 -4 3 -13 -2 -20
-10 -7 -8 -18 -15 -25 -15 -8 0 -15 -3 -17 -8 -2 -4 -28 -23 -58 -42 -47 -29
-163 -111 -195 -137 -5 -5 -32 -26 -60 -47 -149 -112 -478 -439 -555 -550 -8
-12 -19 -26 -25 -32 -10 -11 -23 -28 -88 -117 -20 -29 -42 -57 -47 -64 -6 -7
-10 -17 -10 -23 0 -5 -3 -10 -8 -10 -4 0 -18 -20 -32 -45 -14 -25 -28 -45 -32
-45 -5 0 -8 -4 -8 -10 0 -5 -19 -40 -41 -77 -43 -69 -149 -278 -189 -368 -12
-27 -28 -65 -37 -84 -8 -18 -16 -39 -17 -45 -1 -6 -4 -15 -7 -21 -5 -8 -39
-105 -44 -125 -1 -3 -4 -12 -7 -20 -27 -71 -71 -224 -83 -283 -2 -10 -6 -26
-9 -35 -3 -9 -8 -33 -11 -52 -3 -19 -10 -53 -15 -75 -5 -22 -11 -58 -15 -80
-3 -22 -10 -67 -15 -100 -20 -127 -25 -229 -25 -480 0 -272 8 -401 31 -525 3
-14 7 -36 9 -50 2 -14 6 -40 9 -57 3 -18 8 -48 11 -65 7 -41 54 -238 62 -258
3 -8 7 -19 8 -25 6 -26 66 -207 88 -265 60 -159 151 -350 245 -515 58 -100
211 -329 252 -376 8 -9 24 -28 35 -43 77 -100 146 -177 270 -301 67 -66 134
-131 150 -145 129 -109 170 -142 217 -176 29 -21 62 -47 72 -56 11 -10 24 -18
28 -18 5 0 18 -8 29 -18 10 -11 32 -25 47 -33 15 -8 29 -17 32 -20 10 -11 211
-129 220 -129 6 0 10 -5 10 -10 0 -6 3 -9 8 -8 7 1 83 -34 112 -52 22 -14 191
-90 199 -90 4 0 26 -9 48 -20 70 -33 390 -136 483 -154 14 -3 36 -8 50 -11 14
-3 36 -8 50 -11 14 -2 34 -6 46 -9 53 -12 102 -19 132 -20 17 0 32 -3 32 -6 0
-3 6 -6 13 -6 6 -1 35 -4 62 -7 28 -3 77 -9 110 -13 135 -15 628 -7 746 12 13
2 42 6 64 9 22 3 51 8 65 10 14 3 43 8 65 11 22 4 54 9 70 11 17 3 57 12 90
21 33 8 71 17 85 19 14 3 36 8 50 13 14 5 52 17 85 26 111 32 170 52 301 104
137 54 426 195 471 230 14 12 30 21 34 21 9 0 231 148 294 195 19 15 32 32 28
38 -3 6 -1 7 6 3 24 -15 313 245 476 429 33 37 69 77 79 88 27 29 204 265 218
291 6 11 14 23 17 26 11 9 82 128 156 260 146 262 273 601 340 905 15 69 29
132 30 145 2 8 6 38 9 65 4 28 9 57 11 65 3 8 7 44 11 80 3 36 9 97 14 135 8
79 6 566 -3 605 -4 14 -9 52 -13 85 -3 33 -7 69 -9 80 -2 11 -8 52 -14 92 -11
71 -57 285 -68 313 -3 8 -8 24 -10 35 -2 11 -10 40 -18 65 -8 25 -15 47 -14
50 1 5 -24 74 -41 115 -5 11 -12 31 -15 45 -4 14 -13 39 -20 55 -13 31 -27 66
-30 75 -4 16 -56 129 -97 210 -63 125 -164 308 -178 320 -3 3 -30 43 -60 90
-129 199 -362 467 -572 656 -63 57 -263 215 -301 239 -8 6 -48 33 -88 60 -40
28 -81 55 -90 60 -190 109 -240 136 -246 137 -4 0 -19 8 -33 17 -26 18 -276
130 -300 135 -3 1 -9 4 -15 7 -24 15 -356 119 -430 134 -11 3 -31 7 -45 10
-92 20 -161 33 -210 40 -24 4 -47 8 -50 10 -3 1 -36 6 -75 10 -38 4 -83 10
-100 12 -36 5 -601 13 -606 9z m2848 -2871 c0 -8 -4 -12 -9 -9 -5 3 -6 10 -3
15 9 13 12 11 12 -6z m-1592 -125 c3 -6 -1 -7 -9 -4 -18 7 -21 14 -7 14 6 0
13 -4 16 -10z m1586 -87 c13 -16 12 -17 -3 -4 -10 7 -18 15 -18 17 0 8 8 3 21
-13z m684 -432 c3 -5 2 -12 -3 -15 -5 -3 -9 1 -9 9 0 17 3 19 12 6z m-3235
-2345 c0 -2 -8 -10 -17 -17 -16 -13 -17 -12 -4 4 13 16 21 21 21 13z m-3 -221
c0 -8 -4 -12 -9 -9 -5 3 -6 10 -3 15 9 13 12 11 12 -6z m-117 -315 c0 -5 -4
-10 -10 -10 -5 0 -10 5 -10 10 0 6 5 10 10 10 6 0 10 -4 10 -10z"/>
</g>
</svg>
