<?xml version="1.0" standalone="no"?>
<!DOCTYPE svg PUBLIC "-//W3C//DTD SVG 20010904//EN"
 "http://www.w3.org/TR/2001/REC-SVG-20010904/DTD/svg10.dtd">
<svg version="1.0" xmlns="http://www.w3.org/2000/svg"
 width="700.000000pt" height="700.000000pt" viewBox="0 0 700.000000 700.000000"
 preserveAspectRatio="xMidYMid meet">
<metadata>
Created by potrace 1.14, written by Peter Selinger 2001-2017
</metadata>
<g transform="translate(0.000000,700.000000) scale(0.100000,-0.100000)"
fill="#000000" stroke="none">
<path d="M0 3500 l0 -3500 3500 0 3500 0 0 3500 0 3500 -3500 0 -3500 0 0
-3500z m2475 1875 c25 -9 595 -333 1267 -721 673 -389 1294 -747 1382 -797
192 -112 230 -143 267 -221 24 -51 29 -74 29 -137 0 -65 -5 -85 -31 -137 -39
-80 -74 -108 -265 -219 -88 -50 -709 -409 -1382 -797 -673 -388 -1246 -713
-1273 -722 -103 -34 -226 -3 -308 76 -55 54 -80 106 -92 198 -6 50 -9 621 -7
1657 3 1441 4 1584 20 1623 49 129 162 210 295 211 29 1 73 -6 98 -14z"/>
<path d="M2320 5198 c-87 -44 -80 115 -80 -1698 0 -1821 -8 -1654 84 -1699 47
-23 51 -24 91 -10 43 16 2716 1554 2773 1596 88 65 81 175 -15 237 -69 44
-2697 1559 -2738 1577 -52 24 -62 24 -115 -3z m547 -383 c64 -19 134 -80 167
-147 20 -41 26 -67 26 -120 0 -84 -15 -121 -84 -212 -103 -134 -143 -254 -132
-396 10 -135 53 -231 158 -353 87 -100 101 -132 102 -222 0 -88 -25 -145 -93
-208 -178 -167 -471 -37 -471 207 0 79 15 117 83 208 102 137 145 267 132 403
-13 134 -56 231 -155 342 -82 92 -104 140 -103 228 0 87 31 154 99 214 75 66
170 86 271 56z m568 -579 c73 -34 120 -89 159 -184 50 -121 77 -161 153 -232
102 -96 237 -150 373 -150 26 0 90 9 142 20 78 16 106 18 149 10 107 -20 194
-100 225 -207 39 -133 -33 -277 -165 -336 -56 -25 -160 -27 -213 -4 -87 37
-132 89 -179 208 -68 174 -204 298 -379 344 -70 19 -198 19 -275 0 -175 -42
-308 12 -373 153 -20 45 -23 65 -20 125 2 43 12 88 23 112 28 58 103 129 156
148 69 24 164 21 224 -7z m259 -746 c225 -85 247 -395 36 -514 -48 -27 -64
-31 -130 -31 -41 0 -109 4 -150 9 -155 17 -307 -40 -426 -158 -78 -78 -119
-148 -153 -262 -26 -89 -73 -151 -142 -189 -47 -26 -64 -30 -134 -30 -70 0
-87 4 -134 30 -196 108 -200 385 -8 495 68 39 120 45 236 30 131 -17 218 -4
330 51 146 72 242 190 296 365 26 84 59 133 115 170 86 57 172 68 264 34z"/>
</g>
</svg>
